{"title":"Klaas.Van.Den.Eerden.Wortels.DVDRIP.XVID-MisterDeee","uid":6126728,"size":754897118,"categoryP":"video","categoryS":"tv_shows","magnet":"?xt=urn:btih:b5bd931bc0e4980b0e4652e53f2b26eef3607e8d&amp;dn=Klaas.Van.Den.Eerden.Wortels.DVDRIP.XVID-MisterDeee&amp;tr=udp%3A%2F%2Ftracker.openbittorrent.com%3A80&amp;tr=udp%3A%2F%2Fopen.demonii.com%3A1337&amp;tr=udp%3A%2F%2Ftracker.coppersurfer.tk%3A6969&amp;tr=udp%3A%2F%2Fexodus.desync.com%3A6969","seeders":0,"leechers":1,"uploader":"MisterDeee","files":1,"time":1295964670,"description":"In zijn hilarische voorstelling &quot;Wortels&quot; neemt Klaas van der Eerden het publiek mee naar zijn roots. Opgegroeid in de jaren zeventig in een boerengehuchtje boven Amsterdam in een hippiegezin; laat het maar aan Klaas over om daar met zijn grappige verhalen, typetjes en improvisaties compleet op los te gaan.\n\n&quot;Wortels zit boordevol originele vondsten met een hoge grapdichtheid&quot; schreef het AD dan ook. En De Volkskrant had genoten van de &quot;smakelijke verhalen&quot; en noemde Wortel &quot;een vermakelijk en zinnig programma&quot;.\n\nEn dan hebben we het nog niet eens gehad over de zeer komische, muzikale hoogstandjes waarmee Klaas zijn publiek steeds weer verbaast. Conclusie: een energieke volbloed entertainer die zich iedere avond voor de volle 100% geeft en daarmee iedere zaal uit z'n dak laat gaan! \n\nGeneral\nFormat                           : AVI\nFormat/Info                      : Audio Video Interleave\nFile size                        : 720 MiB\nDuration                         : 1h 24mn\nOverall bit rate                 : 1 192 Kbps\n\nVideo\nID                               : 0\nFormat                           : MPEG-4 Visual\nFormat profile                   : Simple@L3\nFormat settings, BVOP            : No\nFormat settings, QPel            : No\nFormat settings, GMC             : No warppoints\nFormat settings, Matrix          : Default (H.263)\nCodec ID                         : XVID\nCodec ID/Hint                    : XviD\nDuration                         : 1h 24mn\nBit rate                         : 994 Kbps\nWidth                            : 672 pixels\nHeight                           : 368 pixels\nDisplay aspect ratio             : 16:9\nFrame rate                       : 30.000 fps\nColor space                      : YUV\nChroma subsampling               : 4:2:0\nBit depth                        : 8 bits\nScan type                        : Progressive\nBits/(Pixel*Frame)               : 0.134\nStream size                      : 600 MiB (83%)\nWriting library                  : XviD 1.1.2 (UTC 2006-11-01)\n\nAudio\nID                               : 1\nFormat                           : AC-3\nFormat/Info                      : Audio Coding 3\nMode extension                   : CM (complete main)\nCodec ID                         : 2000\nDuration                         : 1h 24mn\nBit rate mode                    : Constant\nBit rate                         : 192 Kbps\nChannel(s)                       : 2 channels\nChannel positions                : Front: L R\nSampling rate                    : 48.0 KHz\nBit depth                        : 16 bits\nStream size                      : 116 MiB (16%)\nAlignment                        : Split accross interleaves\nInterleave, duration             : 500 ms (15.00 video frames)\nInterleave, preload duration     : 500 ms\n\nLeave your comment about Audio/Video/Movie.","torrent":{"xt":"urn:btih:b5bd931bc0e4980b0e4652e53f2b26eef3607e8d","amp;dn":"Klaas.Van.Den.Eerden.Wortels.DVDRIP.XVID-MisterDeee","amp;tr":["udp%3A%2F%2Ftracker.openbittorrent.com%3A80","udp%3A%2F%2Fopen.demonii.com%3A1337","udp%3A%2F%2Ftracker.coppersurfer.tk%3A6969","udp%3A%2F%2Fexodus.desync.com%3A6969"],"infoHash":"b5bd931bc0e4980b0e4652e53f2b26eef3607e8d","infoHashBuffer":{"type":"Buffer","data":[181,189,147,27,192,228,152,11,14,70,82,229,63,43,38,238,243,96,126,141]},"announce":[],"urlList":[]}}